<svg xmlns="http://www.w3.org/2000/svg" viewBox="0 0 256 256">
  <defs>
    <linearGradient id="shieldGrad" x1="0%" y1="0%" x2="0%" y2="100%">
      <stop offset="0%" style="stop-color:#1e3a8a;stop-opacity:1" />
      <stop offset="100%" style="stop-color:#0c1e47;stop-opacity:1" />
    </linearGradient>
  </defs>
  <path d="M128 20 L40 60 L40 120 Q40 180 128 236 Q216 180 216 120 L216 60 Z" fill="url(#shieldGrad)"/>
  <path d="M128 40 L60 72 L60 120 Q60 170 128 216 Q196 170 196 120 L196 72 Z" fill="#0f172a"/>
  <circle cx="128" cy="100" r="4" fill="#3b82f6"/>
  <circle cx="100" cy="120" r="3" fill="#3b82f6"/>
  <circle cx="156" cy="120" r="3" fill="#3b82f6"/>
  <circle cx="128" cy="140" r="3" fill="#3b82f6"/>
  <circle cx="110" cy="160" r="2.5" fill="#60a5fa"/>
  <circle cx="146" cy="160" r="2.5" fill="#60a5fa"/>
  <line x1="128" y1="100" x2="100" y2="120" stroke="#3b82f6" stroke-width="2"/>
  <line x1="128" y1="100" x2="156" y2="120" stroke="#3b82f6" stroke-width="2"/>
  <line x1="100" y1="120" x2="128" y2="140" stroke="#3b82f6" stroke-width="2"/>
  <line x1="156" y1="120" x2="128" y2="140" stroke="#3b82f6" stroke-width="2"/>
  <line x1="128" y1="140" x2="110" y2="160" stroke="#60a5fa" stroke-width="1.5"/>
  <line x1="128" y1="140" x2="146" y2="160" stroke="#60a5fa" stroke-width="1.5"/>
  <rect x="85" y="85" width="8" height="2" fill="#60a5fa" opacity="0.6"/>
  <rect x="163" y="85" width="8" height="2" fill="#60a5fa" opacity="0.6"/>
  <rect x="75" y="145" width="6" height="2" fill="#60a5fa" opacity="0.5"/>
  <rect x="175" y="145" width="6" height="2" fill="#60a5fa" opacity="0.5"/>
</svg>